<svg width="230" height="248" viewBox="0 0 230 248" fill="none" xmlns="http://www.w3.org/2000/svg">
<path d="M172.821 104.682C169.409 106.658 165.01 105.385 163.184 101.823C161.478 98.4843 162.99 94.3677 166.237 92.4965L203.978 70.7009C212.418 65.8358 212.418 53.6506 203.978 48.7855C177.131 33.2771 150.285 17.7836 123.453 2.27521C118.23 -0.748636 111.795 -0.748636 106.558 2.27521C79.7559 17.7537 52.9691 33.2322 26.1673 48.6957C17.7272 53.5608 17.7272 65.746 26.1673 70.6111L63.9083 92.4067C67.1556 94.2779 68.6671 98.3945 66.9611 101.733C65.1504 105.295 60.7507 106.568 57.3238 104.592L19.8522 82.9459C11.4121 78.0808 0.876953 84.1585 0.876953 93.9036V185.337C0.876953 191.37 4.09436 196.954 9.31704 199.963C35.9093 215.321 62.5165 230.68 89.1088 246.039C97.5489 250.904 108.084 244.826 108.084 235.081V191.34C108.084 187.598 110.897 184.23 114.639 184.035C118.634 183.826 121.926 186.999 121.926 190.951V235.066C121.926 244.811 132.462 250.889 140.902 246.024C167.494 230.665 194.071 215.321 220.664 199.963C225.886 196.939 229.104 191.37 229.104 185.337V94.0683C229.104 84.3231 218.568 78.2455 210.128 83.1106L172.806 104.667L172.821 104.682ZM187.562 171.7C185.526 174.844 181.202 175.592 177.954 173.721L149.102 157.06C128.197 144.98 102.442 144.98 81.5367 157.06L52.6847 173.721C49.4374 175.592 45.1276 174.844 43.0774 171.7C40.9075 168.347 41.9999 163.901 45.4119 161.925L74.3237 145.234C95.2294 133.154 108.114 110.849 108.114 86.7033V51.0908C108.114 47.3484 110.927 43.9803 114.669 43.7857C118.664 43.5761 121.956 46.7496 121.956 50.7016V86.374C121.956 110.52 134.841 132.839 155.747 144.905L185.227 161.94C188.639 163.916 189.746 168.362 187.562 171.715V171.7Z" fill="#D6F670"/>
</svg>
