<svg width="94" height="64" viewBox="0 0 94 64" fill="none" xmlns="http://www.w3.org/2000/svg">
<path d="M0.85791 43.8675H9.68303C11.8073 43.8675 13.4338 44.3906 14.4546 45.3013C15.5305 46.2671 16.026 47.4531 16.026 48.997C16.026 51.0111 14.785 52.3073 12.936 52.9404V53.023C15.1153 53.6584 16.6041 55.4776 16.6041 57.9047C16.6041 59.7514 16.026 61.02 14.8675 62.0133C13.7366 63.0066 12 63.5847 9.90326 63.5847H0.85791V43.8652V43.8675ZM9.18752 51.8095C10.9241 51.8095 12.1101 50.9813 12.1101 49.4374C12.1101 47.9761 11.0342 47.1205 9.27011 47.1205H4.85869V51.8095H9.18752ZM4.8564 60.2767H9.46281C11.3921 60.2767 12.5506 59.2008 12.5506 57.6019C12.5506 55.7277 11.1719 54.7619 9.35269 54.7619H4.8564V60.2767Z" fill="#1D3F37"/>
<path d="M18.6482 43.8672H22.3989V47.2325H18.6482V43.8672ZM18.6482 49.4371H22.3989V63.5844H18.6482V49.4371Z" fill="#1D3F37"/>
<path d="M24.1353 56.5262C24.1353 52.3075 27.1404 49.0522 31.5266 49.0522C35.9128 49.0522 38.918 52.3075 38.918 56.5262C38.918 60.7449 35.9128 64.0001 31.5266 64.0001C27.1404 64.0001 24.1353 60.7449 24.1353 56.5262ZM35.1122 56.5262C35.1122 53.7688 33.8161 51.8923 31.5266 51.8923C29.2372 51.8923 27.941 53.7665 27.941 56.5262C27.941 59.2859 29.2096 61.1326 31.5266 61.1326C33.8436 61.1326 35.1122 59.2859 35.1122 56.5262Z" fill="#1D3F37"/>
<path d="M39.9666 56.5262C39.9666 52.3075 42.724 49.0522 47.0276 49.0522C50.6957 49.0522 52.9576 51.1765 53.4531 54.2367H49.785C49.5372 52.9957 48.5715 52.0574 47.1927 52.0574C44.9308 52.0574 43.7723 53.794 43.7723 56.5262C43.7723 59.2584 44.8482 60.995 47.1377 60.995C48.654 60.995 49.7299 60.1943 49.9777 58.5954H53.5908C53.343 61.6006 50.9985 64.0001 47.2203 64.0001C42.7515 64.0001 39.9666 60.7449 39.9666 56.5262Z" fill="#1D3F37"/>
<path d="M58.8327 51.6991H58.9153C59.771 50.1001 60.7345 49.272 62.3908 49.272C62.8037 49.272 63.0514 49.2995 63.274 49.3821V52.6648H63.1914C60.7368 52.4171 58.9727 53.7132 58.9727 56.6909V63.5867H55.2219V49.4394H58.835V51.7014L58.8327 51.6991Z" fill="#1D3F37"/>
<path d="M63.7966 56.5262C63.7966 52.3075 66.8018 49.0522 71.188 49.0522C75.5742 49.0522 78.5793 52.3075 78.5793 56.5262C78.5793 60.7449 75.5742 64.0001 71.188 64.0001C66.8018 64.0001 63.7966 60.7449 63.7966 56.5262ZM74.7736 56.5262C74.7736 53.7688 73.4774 51.8923 71.188 51.8923C68.8985 51.8923 67.6024 53.7665 67.6024 56.5262C67.6024 59.2859 68.871 61.1326 71.188 61.1326C73.505 61.1326 74.7736 59.2859 74.7736 56.5262Z" fill="#1D3F37"/>
<path d="M83.9868 51.3692H84.0693C85.0351 49.8529 86.3312 49.0522 88.2605 49.0522C91.1831 49.0522 93.1422 51.2591 93.1422 54.3469V63.5849H89.3915V54.8974C89.3915 53.3811 88.5083 52.3052 86.9369 52.3052C85.2829 52.3052 84.0693 53.6288 84.0693 55.5604V63.5849H80.3186V49.4376H83.9868V51.3692Z" fill="#1D3F37"/>
<path d="M56.6304 16.041C56.1073 16.3438 55.4329 16.1488 55.153 15.6028C54.8915 15.0913 55.1232 14.4604 55.621 14.1736L61.4065 10.8335C62.7004 10.088 62.7004 8.22065 61.4065 7.47509C57.291 5.09848 53.1755 2.72416 49.0624 0.347545C48.2617 -0.115848 47.2753 -0.115848 46.4724 0.347545C42.3638 2.71957 38.2575 5.09159 34.1489 7.46132C32.855 8.20688 32.855 10.0742 34.1489 10.8198L39.9344 14.1599C40.4322 14.4466 40.6639 15.0775 40.4024 15.5891C40.1248 16.135 39.4504 16.33 38.925 16.0272L33.1808 12.7101C31.887 11.9645 30.272 12.8959 30.272 14.3893V28.4012C30.272 29.3257 30.7652 30.1814 31.5658 30.6425C35.6423 32.9961 39.7211 35.3498 43.7976 37.7035C45.0914 38.449 46.7064 37.5177 46.7064 36.0243V29.3211C46.7064 28.7476 47.1377 28.2315 47.7112 28.2016C48.3237 28.1695 48.8284 28.6558 48.8284 29.2615V36.022C48.8284 37.5154 50.4434 38.4468 51.7372 37.7012C55.8137 35.3475 59.8879 32.9961 63.9644 30.6425C64.765 30.1791 65.2582 29.3257 65.2582 28.4012V14.4145C65.2582 12.9211 63.6432 11.9897 62.3494 12.7353L56.6281 16.0387L56.6304 16.041ZM58.89 26.3113C58.578 26.7931 57.915 26.9078 57.4172 26.621L52.9943 24.0678C49.7896 22.2165 45.8415 22.2165 42.6368 24.0678L38.2139 26.621C37.7161 26.9078 37.0554 26.7931 36.7411 26.3113C36.4085 25.7975 36.576 25.1162 37.099 24.8133L41.5311 22.2555C44.7358 20.4042 46.711 16.9861 46.711 13.2859V7.82837C46.711 7.25486 47.1423 6.73871 47.7158 6.70888C48.3283 6.67677 48.833 7.1631 48.833 7.76872V13.2354C48.833 16.9357 50.8081 20.3561 54.0129 22.205L58.5321 24.8156C59.0551 25.1185 59.2249 25.7998 58.89 26.3136V26.3113Z" fill="#1D3F37"/>
</svg>
