<svg width="153" height="36" viewBox="0 0 153 36" fill="none" xmlns="http://www.w3.org/2000/svg">
<path d="M25.0829 15.2104C24.5852 15.4975 23.9434 15.3126 23.677 14.7949C23.4282 14.3098 23.6487 13.7116 24.1224 13.4397L29.6279 10.2726C30.8592 9.56561 30.8592 7.79497 29.6279 7.08802C25.7116 4.83447 21.7953 2.5831 17.8811 0.329549C17.1192 -0.10985 16.1805 -0.10985 15.4165 0.329549C11.5067 2.57875 7.59909 4.82794 3.6893 7.07496C2.45808 7.78192 2.45808 9.55256 3.6893 10.2595L9.19488 13.4267C9.66859 13.6986 9.88908 14.2968 9.64022 14.7818C9.37607 15.2995 8.73426 15.4844 8.23435 15.1973L2.76807 12.0519C1.53684 11.345 0 12.2281 0 13.6442V26.9305C0 27.8072 0.469349 28.6185 1.23122 29.0558C5.11045 31.2875 8.99186 33.5193 12.8711 35.7511C14.1023 36.4581 15.6392 35.5749 15.6392 34.1589V27.8028C15.6392 27.259 16.0496 26.7696 16.5953 26.7413C17.1782 26.7108 17.6584 27.172 17.6584 27.7463V34.1567C17.6584 35.5728 19.1953 36.4559 20.4265 35.749C24.3057 33.5172 28.1828 31.2875 32.062 29.0558C32.8239 28.6164 33.2932 27.8072 33.2932 26.9305V13.6681C33.2932 12.252 31.7564 11.3689 30.5252 12.0758L25.0807 15.2082L25.0829 15.2104ZM27.2332 24.9489C26.9363 25.4057 26.3054 25.5145 25.8317 25.2426L21.6228 22.8215C18.5731 21.0661 14.8162 21.0661 11.7665 22.8215L7.55761 25.2426C7.0839 25.5145 6.45519 25.4057 6.15612 24.9489C5.83958 24.4616 5.99894 23.8156 6.49667 23.5285L10.7143 21.1031C13.7639 19.3477 15.6435 16.1066 15.6435 12.5979V7.423C15.6435 6.87919 16.0539 6.38976 16.5997 6.36149C17.1825 6.33103 17.6628 6.79218 17.6628 7.36645V12.55C17.6628 16.0587 19.5424 19.302 22.5921 21.0552L26.8926 23.5306C27.3904 23.8178 27.5519 24.4638 27.2332 24.9511V24.9489Z" fill="#D6F670"/>
<path d="M43.3932 6.12407H53.8061C56.3126 6.12407 58.2317 6.74122 59.4362 7.8158C60.7057 8.95535 61.2903 10.3548 61.2903 12.1764C61.2903 14.5529 59.826 16.0823 57.6443 16.8293V16.9268C60.2157 17.6766 61.9724 19.823 61.9724 22.6868C61.9724 24.8657 61.2903 26.3626 59.9234 27.5346C58.589 28.7066 56.54 29.3887 54.066 29.3887H43.3932V6.12137V6.12407ZM53.2215 15.4949C55.2705 15.4949 56.6699 14.5178 56.6699 12.6961C56.6699 10.9719 55.4004 9.96227 53.3189 9.96227H48.1138V15.4949H53.2215ZM48.1111 25.4856H53.5463C55.8227 25.4856 57.1896 24.2161 57.1896 22.3295C57.1896 20.1181 55.5628 18.9785 53.4163 18.9785H48.1111V25.4856Z" fill="#D6F670"/>
<path d="M64.3843 6.12408H68.8098V10.0949H64.3843V6.12408ZM64.3843 12.6961H68.8098V29.3887H64.3843V12.6961Z" fill="#D6F670"/>
<path d="M70.8588 21.06C70.8588 16.0823 74.4046 12.2413 79.58 12.2413C84.7553 12.2413 88.3012 16.0823 88.3012 21.06C88.3012 26.0377 84.7553 29.8786 79.58 29.8786C74.4046 29.8786 70.8588 26.0377 70.8588 21.06ZM83.8106 21.06C83.8106 17.8065 82.2813 15.5923 79.58 15.5923C76.8786 15.5923 75.3493 17.8038 75.3493 21.06C75.3493 24.3162 76.8461 26.4952 79.58 26.4952C82.3138 26.4952 83.8106 24.3162 83.8106 21.06Z" fill="#D6F670"/>
<path d="M89.5381 21.06C89.5381 16.0823 92.7916 12.2413 97.8695 12.2413C102.198 12.2413 104.867 14.7478 105.451 18.3586H101.123C100.831 16.8943 99.6912 15.7872 98.0644 15.7872C95.3955 15.7872 94.0286 17.8362 94.0286 21.06C94.0286 24.2838 95.2981 26.3328 97.9994 26.3328C99.7886 26.3328 101.058 25.3881 101.35 23.5015H105.614C105.321 27.0474 102.555 29.8786 98.0969 29.8786C92.8241 29.8786 89.5381 26.0377 89.5381 21.06Z" fill="#D6F670"/>
<path d="M111.799 15.365H111.896C112.906 13.4783 114.042 12.5012 115.997 12.5012C116.484 12.5012 116.776 12.5337 117.039 12.6311V16.5045H116.941C114.045 16.2122 111.964 17.7415 111.964 21.2549V29.3914H107.538V12.6988H111.801V15.3677L111.799 15.365Z" fill="#D6F670"/>
<path d="M117.656 21.06C117.656 16.0823 121.202 12.2413 126.377 12.2413C131.553 12.2413 135.099 16.0823 135.099 21.06C135.099 26.0377 131.553 29.8786 126.377 29.8786C121.202 29.8786 117.656 26.0377 117.656 21.06ZM130.608 21.06C130.608 17.8065 129.079 15.5923 126.377 15.5923C123.676 15.5923 122.147 17.8038 122.147 21.06C122.147 24.3162 123.643 26.4952 126.377 26.4952C129.111 26.4952 130.608 24.3162 130.608 21.06Z" fill="#D6F670"/>
<path d="M141.478 14.9752H141.576C142.715 13.186 144.245 12.2413 146.521 12.2413C149.97 12.2413 152.281 14.8453 152.281 18.4886V29.3887H147.856V19.1382C147.856 17.349 146.813 16.0795 144.959 16.0795C143.008 16.0795 141.576 17.6413 141.576 19.9204V29.3887H137.15V12.6961H141.478V14.9752Z" fill="#D6F670"/>
</svg>
