<svg width="1440" height="720" viewBox="0 0 1440 720" fill="none" xmlns="http://www.w3.org/2000/svg">
<g opacity="0.8">
<g style="mix-blend-mode:soft-light" opacity="0.4">
<path d="M91.9452 674.311C90.2538 677.225 86.451 678.173 83.5847 676.335C80.9024 674.611 80.2757 670.937 81.8894 668.17L100.624 635.986C104.818 628.795 99.6449 619.835 91.3206 619.871C64.8283 619.962 38.3423 620.064 11.8611 620.149C6.70446 620.161 1.93259 622.916 -0.667788 627.382C-13.9722 650.239 -27.2654 673.089 -40.5762 695.934C-44.7697 703.125 -39.5968 712.084 -31.2726 712.048L5.96766 711.916C9.17015 711.901 12.0386 714.281 12.1906 717.466C12.3603 720.861 9.63787 723.68 6.25774 723.695L-30.7192 723.822C-39.0435 723.858 -44.2759 732.837 -40.1389 740.003L-1.3231 807.234C1.23793 811.67 5.99424 814.398 11.1445 814.374C37.3847 814.282 63.6359 814.183 89.876 814.091C98.2002 814.055 103.433 805.076 99.2956 797.91L80.7266 765.748C79.1379 762.996 79.7943 759.315 82.4861 757.57C85.3601 755.705 89.1487 756.629 90.8264 759.535L109.554 791.972C113.691 799.138 124.084 799.096 128.278 791.905C141.477 769.227 154.672 746.566 167.872 723.887C170.462 719.428 170.484 713.956 167.923 709.52L129.177 642.41C125.04 635.244 114.647 635.286 110.453 642.477L91.9277 674.306L91.9452 674.311ZM131.327 717.278C131.152 720.461 128.263 722.863 125.06 722.878L96.5917 722.98C75.9603 723.048 56.8618 734.074 46.4872 751.908L32.1645 776.511C30.5507 779.277 27.037 780.572 24.1821 779.139C21.1495 777.602 20.0722 773.865 21.7635 770.951L36.1179 746.3C46.4925 728.467 46.5785 706.55 36.328 688.796L21.2097 662.61C19.621 659.858 20.2774 656.177 22.9691 654.432C25.8431 652.567 29.6318 653.491 31.3095 656.397L46.4532 682.627C56.7037 700.381 75.7337 711.276 96.3587 711.197L125.452 711.101C128.821 711.093 131.53 713.888 131.333 717.289L131.327 717.278Z" fill="#1D3F37"/>
</g>
<g style="mix-blend-mode:soft-light" opacity="0.24">
<path d="M1307.23 151.892C1304.31 153.569 1300.55 152.489 1298.98 149.464C1297.52 146.63 1298.82 143.135 1301.6 141.546L1333.91 123.04C1341.14 118.91 1341.14 108.564 1333.91 104.433C1310.92 91.2658 1287.94 78.1111 1264.96 64.9438C1260.49 62.3764 1254.98 62.3764 1250.49 64.9438C1227.54 78.0857 1204.61 91.2277 1181.66 104.357C1174.43 108.488 1174.43 118.833 1181.66 122.964L1213.97 141.47C1216.75 143.058 1218.05 146.553 1216.59 149.388C1215.04 152.413 1211.27 153.493 1208.33 151.815L1176.25 133.437C1169.02 129.306 1160 134.466 1160 142.741V220.372C1160 225.494 1162.76 230.235 1167.23 232.79C1190 245.83 1212.78 258.87 1235.55 271.91C1242.78 276.041 1251.8 270.881 1251.8 262.607V225.469C1251.8 222.291 1254.21 219.432 1257.41 219.266C1260.83 219.088 1263.65 221.783 1263.65 225.138V262.594C1263.65 270.868 1272.67 276.028 1279.9 271.898C1302.67 258.857 1325.43 245.83 1348.2 232.79C1352.67 230.222 1355.43 225.494 1355.43 220.372V142.88C1355.43 134.606 1346.41 129.446 1339.18 133.577L1307.22 151.879L1307.23 151.892ZM1319.86 208.793C1318.11 211.462 1314.41 212.098 1311.63 210.509L1286.92 196.363C1269.02 186.106 1246.97 186.106 1229.07 196.363L1204.36 210.509C1201.58 212.098 1197.89 211.462 1196.14 208.793C1194.28 205.946 1195.21 202.172 1198.13 200.494L1222.89 186.322C1240.79 176.066 1251.83 157.128 1251.83 136.627V106.39C1251.83 103.213 1254.23 100.353 1257.44 100.188C1260.86 100.01 1263.68 102.705 1263.68 106.06V136.348C1263.68 156.848 1274.71 175.799 1292.61 186.043L1317.86 200.507C1320.78 202.184 1321.73 205.959 1319.86 208.806V208.793Z" fill="#1D3F37"/>
</g>
<g style="mix-blend-mode:soft-light" opacity="0.4">
<path d="M92.8726 467.063C91.1813 469.977 87.3785 470.925 84.5122 469.087C81.8299 467.363 81.2032 463.689 82.8169 460.923L101.552 428.738C105.745 421.547 100.572 412.587 92.2481 412.623C65.7558 412.714 39.2698 412.816 12.7886 412.901C7.63195 412.914 2.86008 415.669 0.259702 420.135C-13.0447 442.991 -26.3379 465.841 -39.6487 488.686C-43.8422 495.877 -38.6693 504.837 -30.3451 504.8L6.89515 504.668C10.0976 504.653 12.9661 507.033 13.1181 510.218C13.2878 513.613 10.5654 516.432 7.18523 516.447L-29.7917 516.574C-38.116 516.61 -43.3484 525.59 -39.2114 532.755L-0.395607 599.986C2.16542 604.422 6.92173 607.15 12.072 607.126C38.3122 607.034 64.5634 606.936 90.8035 606.843C99.1277 606.807 104.36 597.828 100.223 590.662L81.6541 558.5C80.0654 555.748 80.7218 552.067 83.4135 550.322C86.2876 548.457 90.0762 549.381 91.7539 552.287L110.482 584.725C114.619 591.89 125.011 591.849 129.205 584.658C142.405 561.979 155.6 539.318 168.8 516.639C171.389 512.18 171.411 506.708 168.85 502.272L130.104 435.162C125.967 427.997 115.574 428.038 111.381 435.229L92.8552 467.059L92.8726 467.063ZM132.254 510.031C132.08 513.213 129.19 515.615 125.988 515.63L97.5192 515.732C76.8878 515.8 57.7892 526.826 47.4147 544.66L33.092 569.263C31.4782 572.03 27.9644 573.324 25.1096 571.891C22.077 570.354 20.9997 566.617 22.691 563.704L37.0454 539.052C47.42 521.219 47.506 499.302 37.2555 481.548L22.1372 455.362C20.5485 452.61 21.2049 448.929 23.8966 447.184C26.7706 445.32 30.5593 446.244 32.237 449.149L47.3807 475.379C57.6312 493.133 76.6612 504.028 97.2862 503.949L126.38 503.854C129.749 503.846 132.458 506.641 132.261 510.042L132.254 510.031Z" fill="#1D3F37"/>
</g>
<g style="mix-blend-mode:soft-light" opacity="0.24">
<path d="M1411.66 -27.1266C1408.74 -25.4489 1404.97 -26.5292 1403.41 -29.5542C1401.95 -32.3885 1403.24 -35.8836 1406.02 -37.4724L1438.34 -55.9779C1445.57 -60.1085 1445.57 -70.4543 1438.34 -74.585C1415.35 -87.7524 1392.36 -100.907 1369.39 -114.074C1364.92 -116.642 1359.41 -116.642 1354.92 -114.074C1331.97 -100.932 1309.03 -87.7905 1286.08 -74.6613C1278.86 -70.5306 1278.86 -60.1848 1286.08 -56.0541L1318.4 -37.5486C1321.18 -35.9599 1322.48 -32.4647 1321.01 -29.6304C1319.46 -26.6055 1315.7 -25.5251 1312.76 -27.2028L1280.68 -45.5812C1273.45 -49.7119 1264.43 -44.5517 1264.43 -36.2777V41.3539C1264.43 46.4759 1267.18 51.2167 1271.65 53.7713C1294.43 66.8116 1317.21 79.8519 1339.98 92.8922C1347.21 97.0228 1356.23 91.8626 1356.23 83.5886V46.4505C1356.23 43.2731 1358.64 40.4134 1361.84 40.2481C1365.26 40.0702 1368.08 42.7647 1368.08 46.1201V83.5759C1368.08 91.8499 1377.1 97.0101 1384.33 92.8794C1407.1 79.8392 1429.86 66.8116 1452.63 53.7713C1457.1 51.204 1459.86 46.4759 1459.86 41.3539V-36.1378C1459.86 -44.4119 1450.83 -49.5721 1443.61 -45.4414L1411.65 -27.1393L1411.66 -27.1266ZM1424.28 29.7752C1422.54 32.4443 1418.84 33.0798 1416.06 31.4911L1391.35 17.345C1373.45 7.08823 1351.4 7.08823 1333.5 17.345L1308.79 31.4911C1306.01 33.0798 1302.32 32.4443 1300.56 29.7752C1298.7 26.9282 1299.64 23.1534 1302.56 21.4757L1327.32 7.30429C1345.22 -2.95253 1356.25 -21.8902 1356.25 -42.3911V-72.6277C1356.25 -75.8052 1358.66 -78.6649 1361.87 -78.8301C1365.29 -79.008 1368.11 -76.3136 1368.11 -72.9582V-42.6707C1368.11 -22.1698 1379.14 -3.21943 1397.04 7.02468L1422.28 21.4884C1425.21 23.1661 1426.15 26.9409 1424.28 29.7879V29.7752Z" fill="#1D3F37"/>
</g>
<g style="mix-blend-mode:soft-light" opacity="0.4">
<path d="M271.526 570.63C269.835 573.544 266.032 574.492 263.166 572.654C260.484 570.929 259.857 567.255 261.471 564.489L280.205 532.304C284.399 525.114 279.226 516.154 270.902 516.19C244.409 516.281 217.923 516.383 191.442 516.468C186.286 516.48 181.514 519.235 178.913 523.701C165.609 546.558 152.316 569.407 139.005 592.253C134.811 599.444 139.984 608.403 148.308 608.367L185.549 608.235C188.751 608.22 191.62 610.6 191.772 613.785C191.941 617.18 189.219 619.999 185.839 620.013L148.862 620.141C140.538 620.177 135.305 629.156 139.442 636.322L178.258 703.553C180.819 707.989 185.575 710.717 190.726 710.693C216.966 710.601 243.217 710.502 269.457 710.41C277.781 710.374 283.014 701.394 278.877 694.229L260.308 662.066C258.719 659.315 259.375 655.633 262.067 653.889C264.941 652.024 268.73 652.948 270.407 655.854L289.135 688.291C293.272 695.457 303.665 695.415 307.859 688.224C321.058 665.546 334.254 642.885 347.453 620.206C350.043 615.747 350.065 610.275 347.504 605.839L308.758 538.729C304.621 531.563 294.228 531.605 290.034 538.796L271.509 570.625L271.526 570.63ZM310.908 613.597C310.733 616.78 307.844 619.182 304.641 619.197L276.173 619.299C255.541 619.367 236.443 630.393 226.068 648.226L211.746 672.83C210.132 675.596 206.618 676.891 203.763 675.457C200.731 673.921 199.653 670.184 201.345 667.27L215.699 642.619C226.074 624.786 226.16 602.869 215.909 585.114L200.791 558.929C199.202 556.177 199.858 552.496 202.55 550.751C205.424 548.886 209.213 549.81 210.891 552.716L226.034 578.946C236.285 596.7 255.315 607.595 275.94 607.516L305.033 607.42C308.402 607.412 311.111 610.207 310.914 613.608L310.908 613.597Z" fill="#1D3F37"/>
</g>
<g style="mix-blend-mode:soft-light" opacity="0.4">
<path d="M346.689 136.472C345.61 138.33 343.184 138.935 341.356 137.763C339.645 136.663 339.245 134.319 340.274 132.554L352.226 112.023C354.901 107.435 351.601 101.72 346.291 101.743C329.391 101.801 312.494 101.866 295.601 101.92C292.312 101.928 289.267 103.685 287.609 106.534C279.121 121.115 270.641 135.692 262.15 150.266C259.475 154.853 262.774 160.568 268.085 160.545L291.842 160.461C293.884 160.452 295.714 161.97 295.811 164.002C295.92 166.167 294.183 167.966 292.027 167.975L268.438 168.056C263.127 168.079 259.79 173.807 262.429 178.379L287.191 221.267C288.824 224.097 291.858 225.837 295.144 225.822C311.883 225.764 328.63 225.701 345.369 225.642C350.68 225.619 354.018 219.891 351.378 215.319L339.533 194.802C338.519 193.046 338.938 190.698 340.655 189.585C342.488 188.395 344.905 188.985 345.976 190.839L357.923 211.532C360.562 216.103 367.192 216.076 369.867 211.489C378.287 197.022 386.705 182.565 395.126 168.098C396.777 165.253 396.791 161.762 395.158 158.932L370.44 116.121C367.801 111.55 361.172 111.576 358.496 116.164L346.678 136.469L346.689 136.472ZM371.812 163.882C371.701 165.912 369.858 167.445 367.815 167.454L349.653 167.519C336.492 167.562 324.308 174.596 317.69 185.973L308.553 201.668C307.524 203.433 305.282 204.259 303.461 203.344C301.526 202.364 300.839 199.98 301.918 198.122L311.075 182.396C317.694 171.019 317.748 157.038 311.209 145.712L301.565 129.007C300.551 127.252 300.97 124.903 302.687 123.79C304.521 122.601 306.938 123.19 308.008 125.044L317.669 141.777C324.208 153.103 336.347 160.053 349.505 160.003L368.065 159.941C370.214 159.936 371.942 161.719 371.816 163.889L371.812 163.882Z" fill="#1D3F37"/>
</g>
<g style="mix-blend-mode:soft-light" opacity="0.24">
<path d="M1115.69 570.472C1114.61 572.33 1112.18 572.935 1110.36 571.763C1108.64 570.663 1108.24 568.319 1109.27 566.554L1121.23 546.023C1123.9 541.435 1120.6 535.72 1115.29 535.743C1098.39 535.801 1081.49 535.866 1064.6 535.92C1061.31 535.928 1058.27 537.686 1056.61 540.534C1048.12 555.115 1039.64 569.692 1031.15 584.266C1028.47 588.853 1031.77 594.569 1037.08 594.545L1060.84 594.461C1062.88 594.452 1064.71 595.97 1064.81 598.002C1064.92 600.167 1063.18 601.966 1061.03 601.975L1037.44 602.056C1032.13 602.079 1028.79 607.808 1031.43 612.379L1056.19 655.267C1057.82 658.097 1060.86 659.838 1064.14 659.822C1080.88 659.764 1097.63 659.701 1114.37 659.642C1119.68 659.619 1123.02 653.891 1120.38 649.319L1108.53 628.802C1107.52 627.047 1107.94 624.698 1109.66 623.585C1111.49 622.396 1113.91 622.985 1114.98 624.839L1126.92 645.532C1129.56 650.103 1136.19 650.076 1138.87 645.489C1147.29 631.022 1155.71 616.565 1164.13 602.098C1165.78 599.253 1165.79 595.762 1164.16 592.933L1139.44 550.121C1136.8 545.55 1130.17 545.577 1127.5 550.164L1115.68 570.469L1115.69 570.472ZM1140.81 597.882C1140.7 599.912 1138.86 601.445 1136.81 601.454L1118.65 601.519C1105.49 601.562 1093.31 608.597 1086.69 619.973L1077.55 635.668C1076.52 637.433 1074.28 638.259 1072.46 637.345C1070.53 636.364 1069.84 633.981 1070.92 632.122L1080.08 616.396C1086.69 605.02 1086.75 591.038 1080.21 579.712L1070.56 563.007C1069.55 561.252 1069.97 558.904 1071.69 557.79C1073.52 556.601 1075.94 557.19 1077.01 559.044L1086.67 575.777C1093.21 587.103 1105.35 594.053 1118.5 594.003L1137.06 593.941C1139.21 593.936 1140.94 595.719 1140.82 597.889L1140.81 597.882Z" fill="#1D3F37"/>
</g>
<g style="mix-blend-mode:soft-light" opacity="0.24">
<path d="M1514.6 151.891C1511.67 153.569 1507.91 152.489 1506.34 149.464C1504.88 146.63 1506.18 143.134 1508.96 141.546L1541.28 123.04C1548.5 118.909 1548.5 108.564 1541.28 104.433C1518.29 91.2656 1495.3 78.1109 1472.32 64.9435C1467.85 62.3762 1462.34 62.3762 1457.86 64.9435C1434.91 78.0855 1411.97 91.2274 1389.02 104.357C1381.79 108.487 1381.79 118.833 1389.02 122.964L1421.34 141.469C1424.12 143.058 1425.41 146.553 1423.95 149.388C1422.4 152.412 1418.63 153.493 1415.7 151.815L1383.61 133.437C1376.38 129.306 1367.36 134.466 1367.36 142.74V220.372C1367.36 225.494 1370.12 230.235 1374.59 232.789C1397.36 245.83 1420.14 258.87 1442.91 271.91C1450.14 276.041 1459.16 270.881 1459.16 262.607V225.468C1459.16 222.291 1461.57 219.431 1464.78 219.266C1468.2 219.088 1471.02 221.783 1471.02 225.138V262.594C1471.02 270.868 1480.04 276.028 1487.26 271.897C1510.03 258.857 1532.79 245.83 1555.56 232.789C1560.04 230.222 1562.79 225.494 1562.79 220.372V142.88C1562.79 134.606 1553.77 129.446 1546.54 133.577L1514.58 151.879L1514.6 151.891ZM1527.22 208.793C1525.48 211.462 1521.77 212.098 1518.99 210.509L1494.29 196.363C1476.38 186.106 1454.33 186.106 1436.43 196.363L1411.72 210.509C1408.94 212.098 1405.25 211.462 1403.5 208.793C1401.64 205.946 1402.58 202.171 1405.5 200.494L1430.25 186.322C1448.16 176.065 1459.19 157.128 1459.19 136.627V106.39C1459.19 103.213 1461.6 100.353 1464.8 100.188C1468.22 100.01 1471.04 102.704 1471.04 106.06V136.347C1471.04 156.848 1482.07 175.799 1499.98 186.043L1525.22 200.506C1528.14 202.184 1529.09 205.959 1527.22 208.806V208.793Z" fill="#1D3F37"/>
</g>
</g>
</svg>
