<svg width="1440" height="1093" viewBox="0 0 1440 1093" fill="none" xmlns="http://www.w3.org/2000/svg">
<g filter="url(#filter0_f_125_1525)">
<path d="M861.849 1157.22L831.832 961.743C1444.01 916.338 1911.46 680.77 1873.96 436.573L2364 400.226C2418.05 752.187 1744.17 1091.78 861.849 1157.22Z" fill="url(#paint0_linear_125_1525)"/>
</g>
<g filter="url(#filter1_f_125_1525)">
<path d="M846.203 1055.32L820.974 891.019C1335.39 852.865 1728.3 654.863 1696.79 449.662L2108.68 419.112C2154.1 714.935 1587.67 1000.33 846.203 1055.32Z" fill="url(#paint1_linear_125_1525)"/>
</g>
<g filter="url(#filter2_f_125_1525)">
<path d="M1156.16 1135.34L1126.15 939.862C513.975 985.267 -14.4828 823.565 -51.98 579.369L-542.021 615.715C-487.976 967.675 273.84 1200.78 1156.16 1135.34Z" fill="url(#paint2_linear_125_1525)"/>
</g>
<g filter="url(#filter3_f_125_1525)">
<path d="M861.849 1157.22L831.832 961.742C1444.01 916.337 1911.46 680.769 1873.96 436.572L2364 400.225C2418.05 752.186 1744.17 1091.78 861.849 1157.22Z" fill="url(#paint3_linear_125_1525)"/>
</g>
<g filter="url(#filter4_f_125_1525)">
<path d="M846.203 1055.32L820.974 891.019C1335.39 852.865 1728.3 654.863 1696.79 449.662L2108.68 419.112C2154.1 714.935 1587.67 1000.33 846.203 1055.32Z" fill="url(#paint4_linear_125_1525)"/>
</g>
<g filter="url(#filter5_f_125_1525)">
<path d="M1156.16 1135.34L1126.15 939.862C513.975 985.267 -14.4828 823.565 -51.98 579.369L-542.021 615.715C-487.976 967.675 273.84 1200.78 1156.16 1135.34Z" fill="url(#paint5_linear_125_1525)"/>
</g>
<g style="mix-blend-mode:soft-light" opacity="0.8">
<path d="M160.942 557.304C160.102 560.756 156.539 562.847 153.09 561.84C149.861 560.894 148.129 557.363 148.935 554.084L158.265 515.941C160.358 507.417 152.447 499.891 144.037 502.405C117.266 510.382 90.5053 518.369 63.7437 526.336C58.5313 527.884 54.5279 532.092 53.2324 537.385C46.6064 564.472 39.9898 591.549 33.3542 618.627C31.2616 627.151 39.1724 634.677 47.5819 632.163L85.2124 620.945C88.4475 619.977 92.0604 621.531 93.1663 624.709C94.3527 628.093 92.4415 631.756 89.0266 632.777L51.6609 643.911C43.2514 646.426 40.6426 657.069 46.9693 663.088L106.329 719.562C110.246 723.289 115.872 724.633 121.075 723.076C147.59 715.173 174.115 707.26 200.631 699.356C209.04 696.842 211.649 686.199 205.322 680.18L176.925 653.163C174.496 650.852 174.059 646.931 176.261 644.365C178.61 641.622 182.719 641.43 185.285 643.871L213.925 671.118C220.251 677.138 230.751 674.002 232.844 665.478C239.417 638.602 245.991 611.745 252.564 584.869C253.85 579.586 252.237 574.042 248.32 570.316L189.067 513.943C182.741 507.924 172.241 511.06 170.148 519.584L160.923 557.305L160.942 557.304ZM213.622 589.059C214.396 592.331 212.192 595.622 208.956 596.59L180.19 605.166C159.34 611.376 143.317 628.218 138.154 649.35L131.02 678.508C130.214 681.788 127.047 684.144 123.731 683.543C120.204 682.891 117.997 679.43 118.837 675.979L125.989 646.763C131.152 625.63 124.688 603.428 109.012 588.514L85.8923 566.518C83.4627 564.207 83.0264 560.287 85.2276 557.72C87.5774 554.978 91.686 554.785 94.2516 557.226L117.411 579.259C133.086 594.173 155.593 599.533 176.432 593.314L205.833 584.557C209.238 583.546 212.814 585.568 213.631 589.068L213.622 589.059Z" fill="#1D3F37"/>
</g>
<g style="mix-blend-mode:soft-light" opacity="0.3">
<path d="M1426.09 730.616C1425.33 731.666 1423.83 731.877 1422.81 731.058C1421.85 730.29 1421.75 728.856 1422.48 727.859L1430.93 716.264C1432.82 713.674 1431.2 710.031 1428.01 709.713C1417.85 708.69 1407.69 707.672 1397.54 706.647C1395.57 706.446 1393.63 707.312 1392.46 708.921C1386.45 717.155 1380.46 725.388 1374.45 733.618C1372.56 736.208 1374.19 739.851 1377.38 740.169L1391.66 741.605C1392.88 741.727 1393.89 742.755 1393.82 743.982C1393.75 745.291 1392.6 746.264 1391.3 746.134L1377.13 744.707C1373.93 744.388 1371.57 747.623 1372.88 750.536L1385.09 777.87C1385.9 779.673 1387.61 780.909 1389.59 781.106C1399.65 782.118 1409.71 783.128 1419.77 784.14C1422.96 784.459 1425.32 781.224 1424.02 778.311L1418.18 765.235C1417.68 764.116 1418.08 762.73 1419.18 762.169C1420.35 761.568 1421.77 762.074 1422.29 763.255L1428.19 776.443C1429.49 779.356 1433.48 779.755 1435.37 777.165C1441.32 768.994 1447.27 760.83 1453.23 752.66C1454.4 751.053 1454.62 748.955 1453.82 747.152L1441.62 719.868C1440.32 716.955 1436.34 716.556 1434.44 719.146L1426.09 730.613L1426.09 730.616ZM1439.49 748.666C1439.29 749.88 1438.09 750.686 1436.86 750.564L1425.95 749.466C1418.04 748.669 1410.28 752.135 1405.6 758.56L1399.14 767.424C1398.41 768.42 1397.02 768.777 1395.98 768.113C1394.88 767.403 1394.61 765.927 1395.38 764.877L1401.85 755.996C1406.53 749.571 1407.43 741.169 1404.21 733.95L1399.45 723.304C1398.95 722.186 1399.34 720.8 1400.44 720.238C1401.62 719.638 1403.04 720.144 1403.56 721.325L1408.33 731.989C1411.56 739.207 1418.42 744.145 1426.33 744.938L1437.48 746.063C1438.77 746.194 1439.7 747.374 1439.49 748.671L1439.49 748.666Z" fill="#1D3F37"/>
</g>
<g style="mix-blend-mode:soft-light" opacity="0.3">
<path d="M209.086 1029.93C207.788 1029.97 206.704 1028.92 206.721 1027.61C206.739 1026.38 207.813 1025.42 209.047 1025.39L223.389 1024.95C226.595 1024.85 228.472 1021.33 226.765 1018.61C221.342 1009.97 215.916 1001.32 210.496 992.679C209.442 990.995 207.569 989.996 205.579 990.057C195.394 990.369 185.213 990.684 175.03 990.993C171.824 991.088 169.947 994.609 171.654 997.325L179.279 1009.48C179.936 1010.52 179.742 1011.95 178.731 1012.65C177.655 1013.4 176.179 1013.08 175.486 1011.98L167.915 999.908C166.209 997.193 162.206 997.314 160.705 1000.13L146.617 1026.55C145.687 1028.29 145.763 1030.4 146.82 1032.08C152.192 1040.65 157.57 1049.21 162.942 1057.78C164.649 1060.49 168.652 1060.37 170.153 1057.56L176.893 1044.92C177.469 1043.84 178.807 1043.3 179.926 1043.83C181.121 1044.39 181.59 1045.81 180.981 1046.96L174.184 1059.7C172.683 1062.52 174.812 1065.91 178.018 1065.81C188.124 1065.5 198.223 1065.19 208.329 1064.88C210.314 1064.82 212.109 1063.71 213.038 1061.97L227.101 1035.6C228.602 1032.78 226.473 1029.39 223.267 1029.49L209.084 1029.92L209.086 1029.93ZM203.049 1051.58C201.973 1052.17 200.599 1051.72 199.942 1050.67L194.112 1041.38C189.889 1034.65 182.394 1030.65 174.448 1030.9L163.484 1031.23C162.251 1031.27 161.112 1030.38 161 1029.16C160.885 1027.85 161.888 1026.74 163.185 1026.69L174.171 1026.36C182.117 1026.11 189.303 1021.67 193.024 1014.69L198.511 1004.4C199.087 1003.32 200.425 1002.78 201.544 1003.31C202.739 1003.87 203.208 1005.3 202.599 1006.44L197.103 1016.75C193.383 1023.72 193.694 1032.17 197.919 1038.9L203.874 1048.4C204.562 1049.5 204.2 1050.96 203.047 1051.58L203.049 1051.58Z" fill="#1D3F37"/>
</g>
<g style="mix-blend-mode:soft-light" opacity="0.4">
<path d="M1361.2 983.797C1358.12 985.568 1354.15 984.428 1352.5 981.235C1350.96 978.244 1352.32 974.555 1355.26 972.878L1389.32 953.347C1396.94 948.988 1396.94 938.069 1389.32 933.709C1365.09 919.813 1340.86 905.929 1316.64 892.032C1311.92 889.323 1306.12 889.323 1301.39 892.032C1277.2 905.902 1253.02 919.772 1228.83 933.629C1221.21 937.988 1221.21 948.907 1228.83 953.267L1262.89 972.798C1265.82 974.474 1267.19 978.163 1265.65 981.155C1264.01 984.347 1260.04 985.487 1256.95 983.717L1223.13 964.32C1215.51 959.961 1206 965.407 1206 974.139V1056.07C1206 1061.48 1208.9 1066.48 1213.62 1069.18C1237.62 1082.94 1261.64 1096.7 1285.64 1110.47C1293.26 1114.82 1302.77 1109.38 1302.77 1100.65V1061.45C1302.77 1058.1 1305.31 1055.08 1308.68 1054.9C1312.29 1054.72 1315.26 1057.56 1315.26 1061.1V1100.63C1315.26 1109.37 1324.77 1114.81 1332.39 1110.45C1356.39 1096.69 1380.38 1082.94 1404.38 1069.18C1409.1 1066.47 1412 1061.48 1412 1056.07V974.287C1412 965.554 1402.49 960.108 1394.87 964.468L1361.19 983.784L1361.2 983.797ZM1374.5 1043.85C1372.67 1046.67 1368.76 1047.34 1365.83 1045.66L1339.79 1030.73C1320.92 1019.91 1297.67 1019.91 1278.8 1030.73L1252.76 1045.66C1249.83 1047.34 1245.94 1046.67 1244.09 1043.85C1242.13 1040.85 1243.12 1036.86 1246.2 1035.09L1272.29 1020.14C1291.16 1009.31 1302.79 989.324 1302.79 967.687V935.775C1302.79 932.422 1305.33 929.404 1308.71 929.229C1312.32 929.041 1315.29 931.885 1315.29 935.426V967.392C1315.29 989.029 1326.92 1009.03 1345.79 1019.84L1372.4 1035.11C1375.48 1036.88 1376.48 1040.86 1374.5 1043.86V1043.85Z" fill="#1D3F37"/>
</g>
<defs>
<filter id="filter0_f_125_1525" x="431.832" y="0.226562" width="2335.21" height="1556.99" filterUnits="userSpaceOnUse" color-interpolation-filters="sRGB">
<feFlood flood-opacity="0" result="BackgroundImageFix"/>
<feBlend mode="normal" in="SourceGraphic" in2="BackgroundImageFix" result="shape"/>
<feGaussianBlur stdDeviation="200" result="effect1_foregroundBlur_125_1525"/>
</filter>
<filter id="filter1_f_125_1525" x="420.975" y="19.1123" width="2090.25" height="1436.21" filterUnits="userSpaceOnUse" color-interpolation-filters="sRGB">
<feFlood flood-opacity="0" result="BackgroundImageFix"/>
<feBlend mode="normal" in="SourceGraphic" in2="BackgroundImageFix" result="shape"/>
<feGaussianBlur stdDeviation="200" result="effect1_foregroundBlur_125_1525"/>
</filter>
<filter id="filter2_f_125_1525" x="-942.021" y="179.368" width="2498.19" height="1366.98" filterUnits="userSpaceOnUse" color-interpolation-filters="sRGB">
<feFlood flood-opacity="0" result="BackgroundImageFix"/>
<feBlend mode="normal" in="SourceGraphic" in2="BackgroundImageFix" result="shape"/>
<feGaussianBlur stdDeviation="200" result="effect1_foregroundBlur_125_1525"/>
</filter>
<filter id="filter3_f_125_1525" x="431.832" y="0.225586" width="2335.21" height="1556.99" filterUnits="userSpaceOnUse" color-interpolation-filters="sRGB">
<feFlood flood-opacity="0" result="BackgroundImageFix"/>
<feBlend mode="normal" in="SourceGraphic" in2="BackgroundImageFix" result="shape"/>
<feGaussianBlur stdDeviation="200" result="effect1_foregroundBlur_125_1525"/>
</filter>
<filter id="filter4_f_125_1525" x="420.975" y="19.1123" width="2090.25" height="1436.21" filterUnits="userSpaceOnUse" color-interpolation-filters="sRGB">
<feFlood flood-opacity="0" result="BackgroundImageFix"/>
<feBlend mode="normal" in="SourceGraphic" in2="BackgroundImageFix" result="shape"/>
<feGaussianBlur stdDeviation="200" result="effect1_foregroundBlur_125_1525"/>
</filter>
<filter id="filter5_f_125_1525" x="-942.021" y="179.368" width="2498.19" height="1366.98" filterUnits="userSpaceOnUse" color-interpolation-filters="sRGB">
<feFlood flood-opacity="0" result="BackgroundImageFix"/>
<feBlend mode="normal" in="SourceGraphic" in2="BackgroundImageFix" result="shape"/>
<feGaussianBlur stdDeviation="200" result="effect1_foregroundBlur_125_1525"/>
</filter>
<linearGradient id="paint0_linear_125_1525" x1="812.821" y1="838.048" x2="2393.98" y2="595.257" gradientUnits="userSpaceOnUse">
<stop stop-color="#1D3F37"/>
<stop offset="1" stop-color="#207460"/>
</linearGradient>
<linearGradient id="paint1_linear_125_1525" x1="805.001" y1="787.107" x2="2133.8" y2="583.066" gradientUnits="userSpaceOnUse">
<stop stop-color="#1D3F37"/>
<stop offset="1" stop-color="#207E68"/>
</linearGradient>
<linearGradient id="paint2_linear_125_1525" x1="1107.17" y1="816.158" x2="-473.977" y2="1058.95" gradientUnits="userSpaceOnUse">
<stop stop-color="#1D3F37"/>
<stop offset="1" stop-color="#D6F670"/>
</linearGradient>
<linearGradient id="paint3_linear_125_1525" x1="812.821" y1="838.047" x2="2393.98" y2="595.256" gradientUnits="userSpaceOnUse">
<stop stop-color="#1D3F37"/>
<stop offset="1" stop-color="#1E715D"/>
</linearGradient>
<linearGradient id="paint4_linear_125_1525" x1="805.001" y1="787.107" x2="2133.8" y2="583.066" gradientUnits="userSpaceOnUse">
<stop stop-color="#1D3F37"/>
<stop offset="1" stop-color="#227D67"/>
</linearGradient>
<linearGradient id="paint5_linear_125_1525" x1="1107.17" y1="816.158" x2="-473.977" y2="1058.95" gradientUnits="userSpaceOnUse">
<stop stop-color="#1D3F37"/>
<stop offset="1" stop-color="#D6F670"/>
</linearGradient>
</defs>
</svg>
