<svg width="226" height="262" viewBox="0 0 226 262" fill="none" xmlns="http://www.w3.org/2000/svg">
<path d="M171.976 199.41C172.919 198.863 174.081 198.863 175.024 199.41L193.976 210.381C194.919 210.927 195.5 211.936 195.5 213.028V234.972C195.5 236.064 194.919 237.073 193.976 237.619L175.024 248.59C174.081 249.137 172.919 249.137 171.976 248.59L153.024 237.619C152.081 237.073 151.5 236.064 151.5 234.972V213.028C151.5 211.936 152.081 210.927 153.024 210.381L171.976 199.41Z" fill="#D6F670"/>
<path d="M158.5 248.071V255.928L151.5 259.891L144.5 255.928V248.071L151.5 244.108L158.5 248.071Z" stroke="#1D3F37" stroke-width="4"/>
<path d="M216.5 214.071V221.928L209.5 225.891L202.5 221.928V214.071L209.5 210.108L216.5 214.071Z" stroke="#1D3F37" stroke-width="4"/>
</svg>
