<svg width="153" height="36" viewBox="0 0 153 36" fill="none" xmlns="http://www.w3.org/2000/svg">
<path d="M25.0829 15.2104C24.5852 15.4975 23.9434 15.3126 23.677 14.7949C23.4282 14.3098 23.6487 13.7116 24.1224 13.4397L29.6279 10.2726C30.8592 9.56561 30.8592 7.79497 29.6279 7.08802C25.7116 4.83447 21.7953 2.5831 17.8811 0.329549C17.1192 -0.10985 16.1805 -0.10985 15.4165 0.329549C11.5067 2.57875 7.59909 4.82794 3.6893 7.07496C2.45808 7.78192 2.45808 9.55256 3.6893 10.2595L9.19488 13.4267C9.66859 13.6986 9.88908 14.2968 9.64022 14.7818C9.37607 15.2995 8.73426 15.4844 8.23435 15.1973L2.76807 12.0519C1.53684 11.345 0 12.2281 0 13.6442V26.9305C0 27.8072 0.469349 28.6185 1.23122 29.0558C5.11045 31.2875 8.99186 33.5193 12.8711 35.7511C14.1023 36.4581 15.6392 35.5749 15.6392 34.1589V27.8028C15.6392 27.259 16.0496 26.7696 16.5953 26.7413C17.1782 26.7108 17.6584 27.172 17.6584 27.7463V34.1567C17.6584 35.5728 19.1953 36.4559 20.4265 35.749C24.3057 33.5172 28.1828 31.2875 32.062 29.0558C32.8239 28.6164 33.2932 27.8072 33.2932 26.9305V13.6681C33.2932 12.252 31.7564 11.3689 30.5252 12.0758L25.0807 15.2082L25.0829 15.2104ZM27.2332 24.9489C26.9363 25.4057 26.3054 25.5145 25.8317 25.2426L21.6228 22.8215C18.5731 21.0661 14.8162 21.0661 11.7665 22.8215L7.55761 25.2426C7.0839 25.5145 6.45519 25.4057 6.15612 24.9489C5.83958 24.4616 5.99894 23.8156 6.49667 23.5285L10.7143 21.1031C13.7639 19.3477 15.6435 16.1066 15.6435 12.5979V7.423C15.6435 6.87919 16.0539 6.38976 16.5997 6.36149C17.1825 6.33103 17.6628 6.79218 17.6628 7.36645V12.55C17.6628 16.0587 19.5424 19.302 22.5921 21.0552L26.8926 23.5306C27.3904 23.8178 27.5519 24.4638 27.2332 24.9511V24.9489Z" fill="#1D3F37"/>
<path d="M43.3931 6.12429H53.806C56.3125 6.12429 58.2316 6.74143 59.4361 7.81602C60.7055 8.95557 61.2902 10.355 61.2902 12.1766C61.2902 14.5532 59.8258 16.0825 57.6442 16.8296V16.927C60.2156 17.6768 61.9723 19.8232 61.9723 22.687C61.9723 24.8659 61.2902 26.3628 59.9233 27.5348C58.5889 28.7068 56.5398 29.389 54.0658 29.389H43.3931V6.12158V6.12429ZM53.2213 15.4951C55.2704 15.4951 56.6698 14.518 56.6698 12.6963C56.6698 10.9721 55.4003 9.96249 53.3188 9.96249H48.1137V15.4951H53.2213ZM48.111 25.4858H53.5461C55.8225 25.4858 57.1895 24.2163 57.1895 22.3297C57.1895 20.1183 55.5627 18.9787 53.4162 18.9787H48.111V25.4858Z" fill="#1D3F37"/>
<path d="M64.3843 6.12451H68.8098V10.0953H64.3843V6.12451ZM64.3843 12.6965H68.8098V29.3892H64.3843V12.6965Z" fill="#1D3F37"/>
<path d="M70.8589 21.0603C70.8589 16.0826 74.4048 12.2417 79.5801 12.2417C84.7554 12.2417 88.3013 16.0826 88.3013 21.0603C88.3013 26.0381 84.7554 29.879 79.5801 29.879C74.4048 29.879 70.8589 26.0381 70.8589 21.0603ZM83.8108 21.0603C83.8108 17.8068 82.2814 15.5927 79.5801 15.5927C76.8787 15.5927 75.3494 17.8041 75.3494 21.0603C75.3494 24.3166 76.8463 26.4955 79.5801 26.4955C82.3139 26.4955 83.8108 24.3166 83.8108 21.0603Z" fill="#1D3F37"/>
<path d="M89.5381 21.0603C89.5381 16.0826 92.7916 12.2417 97.8695 12.2417C102.198 12.2417 104.867 14.7482 105.451 18.359H101.123C100.831 16.8946 99.6912 15.7876 98.0644 15.7876C95.3955 15.7876 94.0286 17.8366 94.0286 21.0603C94.0286 24.2841 95.2981 26.3331 97.9994 26.3331C99.7886 26.3331 101.058 25.3885 101.35 23.5018H105.614C105.321 27.0477 102.555 29.879 98.0969 29.879C92.8241 29.879 89.5381 26.0381 89.5381 21.0603Z" fill="#1D3F37"/>
<path d="M111.799 15.3652H111.896C112.906 13.4786 114.042 12.5015 115.997 12.5015C116.484 12.5015 116.776 12.5339 117.039 12.6314V16.5048H116.941C114.045 16.2124 111.964 17.7418 111.964 21.2552V29.3917H107.538V12.6991H111.801V15.3679L111.799 15.3652Z" fill="#1D3F37"/>
<path d="M117.656 21.0603C117.656 16.0826 121.202 12.2417 126.377 12.2417C131.553 12.2417 135.099 16.0826 135.099 21.0603C135.099 26.0381 131.553 29.879 126.377 29.879C121.202 29.879 117.656 26.0381 117.656 21.0603ZM130.608 21.0603C130.608 17.8068 129.079 15.5927 126.377 15.5927C123.676 15.5927 122.147 17.8041 122.147 21.0603C122.147 24.3166 123.644 26.4955 126.377 26.4955C129.111 26.4955 130.608 24.3166 130.608 21.0603Z" fill="#1D3F37"/>
<path d="M141.479 14.9755H141.576C142.716 13.1864 144.245 12.2417 146.521 12.2417C149.97 12.2417 152.281 14.8456 152.281 18.4889V29.3891H147.856V19.1385C147.856 17.3494 146.814 16.0799 144.959 16.0799C143.008 16.0799 141.576 17.6417 141.576 19.9208V29.3891H137.15V12.6964H141.479V14.9755Z" fill="#1D3F37"/>
</svg>
