<svg width="24" height="24" viewBox="0 0 24 24" fill="none" xmlns="http://www.w3.org/2000/svg">
<path d="M16.2581 8H7.74194C6.78194 8 6 8.71568 6 9.59433V14.4057C6 15.2843 6.78194 16 7.74194 16H16.2581C17.2181 16 18 15.2843 18 14.4057V9.59433C18 8.71568 17.2181 8 16.2581 8ZM16.8387 14.4057C16.8387 14.6997 16.5794 14.9371 16.2581 14.9371H7.74194C7.42065 14.9371 7.16129 14.6997 7.16129 14.4057V9.62622L10.92 12.3437C11.2374 12.574 11.6206 12.6873 12 12.6873C12.3794 12.6873 12.7626 12.574 13.08 12.3437L16.8387 9.62976V14.4057Z" fill="#1D3F37"/>
</svg>
