<svg width="1440" height="556" viewBox="0 0 1440 556" fill="none" xmlns="http://www.w3.org/2000/svg">
<g clip-path="url(#clip0_67_393)">
<g style="mix-blend-mode:soft-light" opacity="0.8">
<path d="M160.942 20.3035C160.102 23.7552 156.539 25.8464 153.09 24.8397C149.862 23.8935 148.13 20.3624 148.935 17.0831L158.266 -21.0593C160.358 -29.5835 152.447 -37.1097 144.038 -34.5954C117.267 -26.6181 90.5059 -18.6316 63.7443 -10.6641C58.5319 -9.11647 54.5285 -4.90848 53.233 0.384307C46.6071 27.4714 39.9904 54.5486 33.3548 81.6264C31.2622 90.1507 39.173 97.6769 47.5825 95.1625L85.213 83.9443C88.4481 82.9765 92.061 84.5308 93.1669 87.7082C94.3533 91.0929 92.4421 94.7559 89.0273 95.7764L51.6615 106.911C43.252 109.425 40.6432 120.068 46.9699 126.088L106.33 182.562C110.246 186.288 115.873 187.633 121.076 186.076C147.591 178.173 174.116 170.259 200.631 162.356C209.041 159.842 211.65 149.198 205.323 143.179L176.926 116.163C174.496 113.851 174.06 109.931 176.261 107.364C178.611 104.622 182.719 104.429 185.285 106.87L213.925 134.118C220.252 140.137 230.752 137.002 232.844 128.477C239.418 101.601 245.992 74.7443 252.565 47.8682C253.851 42.5852 252.238 37.0417 248.321 33.3156L189.068 -23.0571C182.741 -29.0762 172.241 -25.9407 170.149 -17.4164L160.923 20.304L160.942 20.3035ZM213.622 52.0584C214.397 55.331 212.192 58.6215 208.957 59.5893L180.19 68.1659C159.341 74.3755 143.318 91.2172 138.154 112.35L131.021 141.508C130.215 144.787 127.048 147.143 123.731 146.542C120.204 145.89 117.998 142.43 118.838 138.978L125.989 109.762C131.153 88.6297 124.689 66.4275 109.013 51.5138L85.8929 29.5176C83.4633 27.2061 83.027 23.286 85.2282 20.7193C87.578 17.977 91.6866 17.7842 94.2522 20.2252L117.411 42.2583C133.087 57.172 155.593 62.532 176.433 56.3132L205.833 47.5567C209.239 46.5459 212.814 48.5678 213.632 52.0677L213.622 52.0584Z" fill="#1D3F37"/>
</g>
<g style="mix-blend-mode:soft-light" opacity="0.3">
<path d="M1426.09 193.615C1425.33 194.665 1423.83 194.877 1422.81 194.058C1421.85 193.289 1421.75 191.855 1422.48 190.859L1430.93 179.264C1432.83 176.673 1431.2 173.031 1428.01 172.712C1417.85 171.689 1407.69 170.671 1397.54 169.646C1395.57 169.445 1393.63 170.311 1392.46 171.92C1386.45 180.155 1380.46 188.387 1374.45 196.617C1372.56 199.208 1374.19 202.85 1377.38 203.169L1391.66 204.605C1392.88 204.727 1393.89 205.754 1393.82 206.982C1393.75 208.291 1392.6 209.263 1391.3 209.134L1377.13 207.706C1373.93 207.388 1371.57 210.623 1372.88 213.536L1385.09 240.869C1385.9 242.673 1387.62 243.909 1389.59 244.105C1399.65 245.117 1409.71 246.128 1419.77 247.14C1422.96 247.458 1425.32 244.223 1424.02 241.31L1418.18 228.234C1417.68 227.116 1418.08 225.73 1419.18 225.168C1420.35 224.568 1421.77 225.073 1422.29 226.255L1428.19 239.443C1429.49 242.356 1433.48 242.755 1435.37 240.164C1441.32 231.994 1447.27 223.83 1453.23 215.659C1454.4 214.053 1454.62 211.955 1453.82 210.151L1441.62 182.867C1440.32 179.954 1436.34 179.555 1434.44 182.145L1426.09 193.613L1426.09 193.615ZM1439.49 211.666C1439.29 212.88 1438.09 213.685 1436.86 213.563L1425.95 212.466C1418.04 211.668 1410.28 215.135 1405.6 221.56L1399.14 230.424C1398.41 231.42 1397.02 231.776 1395.98 231.113C1394.88 230.402 1394.61 228.926 1395.38 227.876L1401.85 218.995C1406.53 212.57 1407.43 204.168 1404.21 196.95L1399.45 186.304C1398.95 185.185 1399.34 183.8 1400.44 183.238C1401.62 182.637 1403.04 183.143 1403.56 184.324L1408.33 194.988C1411.56 202.207 1418.42 207.145 1426.33 207.938L1437.48 209.062C1438.77 209.194 1439.7 210.374 1439.49 211.67L1439.49 211.666Z" fill="#1D3F37"/>
</g>
<g style="mix-blend-mode:soft-light" opacity="0.3">
<path d="M209.085 492.929C207.788 492.971 206.704 491.92 206.721 490.607C206.739 489.378 207.813 488.423 209.047 488.387L223.389 487.947C226.595 487.851 228.472 484.33 226.765 481.615C221.342 472.967 215.915 464.324 210.496 455.679C209.442 453.995 207.569 452.996 205.579 453.057C195.394 453.369 185.213 453.684 175.03 453.993C171.824 454.088 169.947 457.609 171.654 460.325L179.279 472.479C179.936 473.524 179.742 474.948 178.731 475.648C177.655 476.396 176.178 476.081 175.486 474.978L167.915 462.908C166.208 460.193 162.206 460.314 160.704 463.129L146.617 489.547C145.687 491.29 145.763 493.403 146.82 495.083C152.192 503.648 157.569 512.215 162.942 520.779C164.649 523.495 168.652 523.374 170.153 520.558L176.893 507.92C177.469 506.839 178.807 506.302 179.926 506.827C181.121 507.386 181.59 508.814 180.981 509.956L174.184 522.702C172.682 525.518 174.812 528.909 178.018 528.813C188.124 528.503 198.223 528.194 208.328 527.884C210.314 527.821 212.109 526.711 213.038 524.968L227.101 498.598C228.602 495.782 226.473 492.391 223.267 492.487L209.083 492.923L209.085 492.929ZM203.049 514.581C201.973 515.173 200.599 514.718 199.942 513.673L194.112 504.382C189.889 497.647 182.394 493.65 174.448 493.896L163.484 494.232C162.251 494.268 161.112 493.383 161 492.157C160.885 490.851 161.888 489.736 163.185 489.695L174.171 489.359C182.117 489.113 189.303 484.669 193.023 477.692L198.511 467.403C199.087 466.321 200.425 465.785 201.544 466.309C202.739 466.869 203.208 468.297 202.599 469.439L197.103 479.745C193.382 486.722 193.693 495.17 197.919 501.901L203.874 511.398C204.562 512.499 204.2 513.955 203.047 514.585L203.049 514.581Z" fill="#1D3F37"/>
</g>
<g style="mix-blend-mode:soft-light" opacity="0.4">
<path d="M1361.2 446.797C1358.12 448.568 1354.15 447.428 1352.5 444.235C1350.96 441.244 1352.32 437.555 1355.26 435.878L1389.32 416.347C1396.94 411.988 1396.94 401.069 1389.32 396.709C1365.09 382.813 1340.86 368.929 1316.64 355.032C1311.92 352.323 1306.12 352.323 1301.39 355.032C1277.2 368.902 1253.02 382.772 1228.83 396.629C1221.21 400.988 1221.21 411.907 1228.83 416.267L1262.89 435.798C1265.82 437.474 1267.19 441.163 1265.65 444.155C1264.01 447.347 1260.04 448.487 1256.95 446.717L1223.13 427.32C1215.51 422.961 1206 428.407 1206 437.139V519.072C1206 524.478 1208.9 529.481 1213.62 532.177C1237.62 545.94 1261.64 559.703 1285.64 573.465C1293.26 577.825 1302.77 572.379 1302.77 563.646V524.451C1302.77 521.097 1305.31 518.079 1308.68 517.905C1312.29 517.717 1315.26 520.561 1315.26 524.102V563.633C1315.26 572.365 1324.77 577.811 1332.39 573.452C1356.39 559.689 1380.38 545.94 1404.38 532.177C1409.1 529.468 1412 524.478 1412 519.072V437.287C1412 428.554 1402.49 423.108 1394.87 427.468L1361.19 446.784L1361.2 446.797ZM1374.5 506.852C1372.67 509.668 1368.76 510.339 1365.83 508.662L1339.79 493.733C1320.92 482.908 1297.67 482.908 1278.8 493.733L1252.76 508.662C1249.83 510.339 1245.94 509.668 1244.09 506.852C1242.13 503.847 1243.12 499.863 1246.2 498.092L1272.29 483.136C1291.16 472.311 1302.79 452.324 1302.79 430.687V398.775C1302.79 395.422 1305.33 392.404 1308.71 392.229C1312.32 392.041 1315.29 394.885 1315.29 398.426V430.392C1315.29 452.029 1326.92 472.029 1345.79 482.841L1372.4 498.106C1375.48 499.876 1376.48 503.86 1374.5 506.865V506.852Z" fill="#1D3F37"/>
</g>
</g>
<defs>
<clipPath id="clip0_67_393">
<rect width="1440" height="556" fill="white"/>
</clipPath>
</defs>
</svg>
